<?xml version="1.0" encoding="utf-8"?>
<svg version="1.1" id="Layer_1" xmlns="http://www.w3.org/2000/svg" x="0px" y="0px" viewBox="0 0 200 200" style="enable-background:new 0 0 100 67.1;">
  <path d="M 99.299 149.65 C 99.299 144.244 103.704 140.04 108.909 140.04 C 114.114 140.04 118.519 144.444 118.519 149.65 C 118.519 154.855 114.114 159.259 108.909 159.259 C 103.704 159.259 99.299 155.055 99.299 149.65 M 138.739 149.65 C 138.739 144.244 143.143 140.04 148.348 140.04 C 153.754 140.04 157.958 144.444 157.958 149.65 C 157.958 154.855 153.554 159.259 148.348 159.259 C 143.143 159.46 138.739 155.055 138.739 149.65 M 47.447 149.65 C 47.447 144.244 51.852 140.04 57.057 140.04 C 62.462 140.04 66.667 144.444 66.667 149.65 C 66.667 154.855 62.262 159.259 57.057 159.259 C 51.652 159.46 47.447 155.055 47.447 149.65 M 8.008 149.65 C 8.008 144.244 12.412 140.04 17.618 140.04 C 23.023 140.04 27.227 144.444 27.227 149.65 C 27.227 154.855 22.823 159.259 17.618 159.259 C 12.412 159.46 8.008 155.055 8.008 149.65 M 87.688 132.633 L 79.279 132.633 L 79.279 166.467 L 87.688 166.467 L 87.688 132.633 Z M 27.427 166.467 L 35.836 166.467 L 35.836 132.633 L 27.427 132.633 L 27.427 135.435 C 24.625 133.433 21.221 132.232 17.417 132.232 C 7.808 132.232 0 140.04 0 149.65 C 0 159.46 7.808 167.067 17.417 167.067 C 21.221 167.067 24.625 165.866 27.427 163.864 L 27.427 166.467 Z M 158.158 166.467 L 166.567 166.467 L 166.567 132.633 L 158.158 132.633 L 158.158 135.435 C 155.355 133.433 151.952 132.232 148.148 132.232 C 138.539 132.232 130.731 140.04 130.731 149.65 C 130.731 159.46 138.539 167.067 148.148 167.067 C 151.952 167.067 155.355 165.866 158.158 163.864 L 158.158 166.467 Z M 169.57 155.456 C 169.77 162.262 175.576 167.067 185.385 167.067 C 193.393 167.067 200 163.664 200 156.056 C 200 150.651 196.997 147.648 190.19 146.246 L 184.785 145.245 C 181.381 144.645 178.979 143.844 178.979 141.842 C 178.979 139.64 181.381 138.639 184.184 138.639 C 188.388 138.639 190.19 140.841 190.19 143.243 L 198.599 143.243 C 198.198 136.637 192.793 132.232 184.184 132.232 C 175.375 132.232 170.17 137.037 170.17 143.443 C 170.17 151.051 176.376 152.453 181.782 153.454 L 186.186 154.254 C 189.389 154.855 190.791 155.856 190.791 157.658 C 190.791 159.259 189.189 161.061 185.385 161.061 C 179.78 161.061 178.178 158.258 177.978 155.656 L 169.57 155.656 L 169.57 155.456 Z M 66.667 121.021 L 66.667 135.235 C 63.864 133.233 60.46 132.032 56.657 132.032 C 47.047 132.032 39.239 139.84 39.239 149.45 C 39.239 159.259 47.047 166.867 56.657 166.867 C 60.46 166.867 63.864 165.666 66.667 163.664 L 66.667 166.066 L 75.075 166.066 L 75.075 121.021 L 66.667 121.021 Z M 118.719 121.021 L 118.719 135.235 C 115.916 133.233 112.512 132.032 108.709 132.032 C 99.099 132.032 91.291 139.84 91.291 149.45 C 91.291 159.259 99.099 166.867 108.709 166.867 C 112.512 166.867 115.916 165.666 118.719 163.664 L 118.719 166.066 L 127.127 166.066 L 127.127 121.021 L 118.719 121.021 Z M 21.622 111.011 L 27.427 121.021 L 66.667 121.021 L 51.051 93.994 L 21.622 111.011 Z M 87.688 129.429 L 87.688 121.021 L 118.719 121.021 L 85.686 63.964 L 56.256 80.781 L 79.279 121.021 L 79.279 129.429 L 87.688 129.429 Z M 131.131 121.021 L 170.571 121.021 L 119.72 32.933 L 90.29 49.95 L 131.131 121.021 Z" style="fill: rgb(33, 53, 71);"/>
</svg>