<?xml version="1.0" encoding="utf-8"?>
<svg version="1.1" id="Layer_1" xmlns="http://www.w3.org/2000/svg" x="0px" y="0px" viewBox="0 0 200 200" style="enable-background:new 0 0 168 56;">
  <style type="text/css">
  .st0{fill:#001E63;}
 </style>
  <path class="st0" d="M 199.881 83.315 C 199.285 85.34 198.808 87.365 198.213 89.509 C 198.094 90.104 197.856 90.224 197.26 90.224 C 193.687 90.224 190.113 90.224 186.421 90.224 C 184.872 90.224 183.562 90.819 182.847 92.249 C 182.371 93.082 182.371 93.916 183.085 94.631 C 183.8 95.346 184.515 95.941 185.349 96.418 C 186.897 97.37 188.445 98.085 189.994 99.038 C 191.423 99.872 192.734 100.825 193.925 102.016 C 196.069 104.041 196.664 106.781 196.307 109.639 C 196.069 111.664 195.354 113.57 194.401 115.357 C 192.019 119.645 188.326 121.908 183.562 122.146 C 178.678 122.385 173.794 122.265 168.911 122.265 C 168.792 122.265 168.672 122.265 168.315 122.146 C 168.553 121.313 168.792 120.479 168.911 119.764 C 169.387 118.096 169.744 116.548 170.221 114.88 C 170.34 114.285 170.578 114.166 171.174 114.166 C 174.747 114.166 178.321 114.166 181.894 114.166 C 182.966 114.166 184.038 114.047 185.11 113.808 C 186.54 113.451 187.254 112.379 187.493 110.95 C 187.731 109.758 187.135 108.925 186.301 108.329 C 185.229 107.495 184.038 106.781 182.847 106.066 C 181.18 104.994 179.393 104.041 177.844 102.969 C 175.819 101.54 174.152 99.634 173.794 97.013 C 173.675 95.703 173.675 94.393 173.914 93.201 C 175.462 85.697 181.894 82.481 187.254 82.362 C 191.304 82.243 195.473 82.362 199.523 82.362 C 199.642 82.362 199.761 82.362 200 82.481 C 200 82.6 199.881 82.958 199.881 83.315 Z M 172.365 89.509 C 172.246 89.985 172.008 90.104 171.531 90.104 C 169.268 90.104 166.886 90.104 164.623 90.343 C 157.357 91.415 151.639 97.728 151.163 104.875 C 150.805 110.235 154.14 113.927 159.501 113.927 C 161.526 113.927 163.551 113.927 165.695 113.927 L 166.648 113.927 C 166.409 114.999 166.171 115.833 165.933 116.667 C 165.575 118.216 165.099 119.645 164.742 121.193 C 164.623 121.67 164.384 121.908 163.908 121.908 C 161.168 121.908 158.309 122.027 155.57 121.789 C 148.066 121.432 142.944 116.667 142.229 109.52 C 141.753 104.517 143.182 99.872 145.564 95.584 C 149.733 88.08 156.165 83.672 164.742 82.481 C 167.72 82.124 170.697 82.243 173.794 82.124 C 173.914 82.124 174.033 82.124 174.152 82.243 L 173.556 84.506 C 173.199 86.174 172.722 87.841 172.365 89.509 Z M 135.439 121.313 C 135.32 121.908 135.082 122.146 134.367 122.146 C 131.985 122.146 129.722 122.146 127.34 122.146 C 127.101 122.146 126.863 122.146 126.506 122.146 L 127.34 119.049 L 136.511 84.03 C 136.988 82.124 136.988 82.124 138.656 82.124 C 140.681 82.124 142.705 82.124 144.611 82.124 C 144.85 82.124 145.207 82.124 145.564 82.124 C 144.969 84.506 144.373 86.65 143.777 88.913 C 141.038 99.753 138.298 110.473 135.439 121.313 Z M 128.531 89.39 C 128.412 89.985 128.173 90.104 127.578 90.104 C 124.004 90.104 120.431 90.104 116.858 90.104 C 115.309 90.104 114.118 90.7 113.403 92.01 C 112.808 92.963 112.927 93.797 113.641 94.512 C 114.356 95.226 115.19 95.822 116.143 96.418 C 117.81 97.49 119.716 98.443 121.384 99.395 C 122.099 99.753 122.694 100.229 123.29 100.825 C 126.149 103.088 127.459 106.185 126.744 109.878 C 126.387 112.26 125.434 114.523 124.124 116.548 C 121.979 119.645 118.883 121.432 115.071 121.908 C 113.403 122.146 111.736 122.146 110.068 122.146 C 106.614 122.146 103.159 122.146 99.824 122.146 C 99.467 122.146 99.229 122.146 98.752 122.146 C 98.871 121.551 98.99 120.955 99.109 120.479 C 99.586 118.692 100.062 116.905 100.539 115.119 C 100.658 114.404 101.015 114.166 101.849 114.166 C 105.423 114.166 108.996 114.166 112.45 114.166 C 113.284 114.166 114.237 114.047 115.071 113.927 C 116.143 113.689 116.977 113.213 117.453 112.141 C 118.168 110.592 118.049 109.401 116.738 108.329 C 115.547 107.376 114.237 106.661 113.046 105.828 C 111.378 104.756 109.592 103.803 107.924 102.612 C 105.661 100.944 104.231 98.8 103.993 95.941 C 103.874 93.559 104.47 91.296 105.661 89.271 C 108.043 84.983 111.855 82.838 116.619 82.243 C 117.334 82.124 118.168 82.124 118.883 82.124 C 122.456 82.124 126.029 82.124 129.484 82.124 L 130.318 82.124 C 129.841 84.03 129.365 85.935 128.888 87.722 C 128.888 88.318 128.65 88.794 128.531 89.39 Z M 95.893 115.833 C 95.417 117.739 94.821 119.645 94.345 121.551 C 94.226 122.027 93.988 122.146 93.63 122.146 C 88.032 122.146 82.314 122.146 76.716 122.027 C 74.81 122.027 72.904 121.432 71.237 120.479 C 67.544 118.454 65.638 114.285 66.591 109.758 C 67.306 106.066 69.331 103.326 72.309 101.063 C 76.12 98.085 80.528 96.418 85.411 96.537 C 87.436 96.537 89.461 96.537 91.367 96.537 C 91.963 96.537 92.32 96.298 92.32 95.703 C 92.439 94.75 92.796 93.797 92.916 92.844 C 93.035 91.415 92.201 90.462 90.771 90.224 C 90.176 90.104 89.58 90.104 88.985 90.104 C 85.53 90.104 81.957 90.104 78.503 90.104 L 77.55 90.104 C 78.264 87.484 78.979 84.983 79.575 82.481 C 79.575 82.243 80.051 82.124 80.289 82.124 C 83.267 82.124 86.364 82.124 89.461 82.124 C 90.533 82.124 91.724 82.005 92.916 82.124 C 96.608 82.481 99.586 84.03 101.254 87.484 C 102.326 89.747 102.206 92.129 101.611 94.512 C 99.705 101.659 97.799 108.686 95.893 115.833 Z M 89.699 104.517 C 87.317 104.517 84.935 104.398 82.553 104.517 C 79.694 104.636 76.954 106.781 76.239 109.401 C 75.644 111.783 76.954 113.808 79.336 113.927 C 81.838 114.047 84.458 113.927 86.96 114.047 C 87.436 114.047 87.555 113.808 87.674 113.451 C 88.389 110.711 89.104 107.853 89.938 105.113 C 89.938 104.994 89.938 104.756 90.057 104.517 C 89.819 104.517 89.699 104.517 89.699 104.517 Z M 50.272 109.52 C 44.912 116.071 38.837 121.908 31.691 126.673 C 27.402 129.412 22.995 131.795 17.992 132.867 C 14.419 133.581 10.845 133.7 7.391 132.509 C 2.865 130.842 0.125 127.03 0.006 122.265 C -0.113 117.501 1.435 113.332 3.818 109.282 C 6.796 104.398 10.607 100.348 15.014 96.894 C 20.256 92.725 25.854 89.39 32.286 87.365 C 34.311 86.769 36.455 86.293 38.718 86.174 C 40.148 86.055 41.696 86.293 43.126 86.769 C 46.342 87.722 47.89 90.819 47.056 94.035 C 47.056 94.154 46.937 94.393 46.937 94.631 L 47.056 94.75 C 47.652 94.035 48.247 93.321 48.724 92.487 C 51.106 89.152 53.25 85.697 54.322 81.647 C 54.68 80.218 55.037 78.669 54.799 77.24 C 54.322 74.381 52.536 72.714 49.915 71.88 C 47.175 70.689 44.436 70.927 41.696 71.403 C 36.455 72.356 31.691 74.381 27.045 77.002 C 25.139 78.074 23.233 79.265 21.328 80.456 L 20.851 79.742 C 21.566 79.146 22.161 78.669 22.876 78.074 C 29.308 73.19 36.217 69.498 44.078 67.592 C 48.009 66.639 51.94 66.162 55.871 67.115 C 61.112 68.307 64.566 72.476 64.924 77.836 C 65.162 82.124 64.09 86.055 62.422 89.866 C 59.444 97.132 55.156 103.564 50.272 109.52 Z M 40.148 90.224 C 38.48 89.985 36.932 90.343 35.264 90.819 C 28.713 92.844 23.472 96.894 19.183 102.016 C 17.754 103.684 16.563 105.589 15.967 107.733 C 15.014 111.307 17.159 114.047 20.732 114.047 C 22.638 114.047 24.305 113.57 25.973 112.736 C 32.048 109.878 37.051 105.589 41.458 100.587 C 42.649 99.276 43.364 97.609 43.84 95.822 C 44.793 92.725 43.364 90.581 40.148 90.224 Z M 40.148 90.224" style="fill: rgb(33, 53, 71);"/>
</svg>