<?xml version="1.0" encoding="utf-8"?>
<svg xmlns="http://www.w3.org/2000/svg" viewBox="0 0 200 200">
  <path d="M 49.711 67.54 L 9.271 67.54 C 4.151 67.54 0 71.693 0 76.815 C 0 81.935 4.151 86.089 9.273 86.089 L 49.711 86.089 C 54.833 86.089 58.987 81.935 58.987 76.815 C 58.987 71.693 54.833 67.54 49.711 67.54" style="fill: rgb(121, 249, 138);"/>
  <path d="M 82.727 76.164 L 82.727 123.835 C 82.727 128.958 78.576 133.109 73.453 133.109 C 68.331 133.109 64.178 128.958 64.178 123.835 L 64.178 76.164 C 64.178 71.044 68.331 66.891 73.453 66.891 C 78.576 66.891 82.727 71.047 82.727 76.164 Z M 200 118.075 C 200 126.064 192.76 132.182 186.347 132.182 L 159.936 132.182 C 155.129 132.182 151.233 128.287 151.233 123.482 C 151.233 118.675 155.129 114.782 159.936 114.782 L 176.124 114.782 C 177.142 114.782 177.767 114.647 178.04 114.009 C 178.347 113.311 178.256 112.913 177.778 112.129 L 166.244 93.635 C 166.064 93.327 165.842 92.898 165.484 92.898 C 165.149 92.898 164.86 93.324 164.704 93.658 L 147.096 123.882 C 144.351 128.675 141.127 132.182 136.322 132.182 L 102.456 132.182 C 96.044 132.182 89.587 125.851 89.587 119.313 L 89.587 75.855 C 89.587 70.747 93.729 66.891 98.84 66.891 C 103.949 66.891 108.089 70.744 108.096 75.853 L 108.096 111.304 C 108.096 112.62 109.036 113.673 110.467 113.673 L 127.289 113.673 C 130.236 113.673 132.018 112.607 133.564 110.038 L 156.196 72.538 C 158.344 68.964 161.807 67.055 165.878 67.055 C 169.829 67.055 172.956 68.84 175.253 72.538 L 194.8 104.353 C 199.024 111.227 200 113.011 200 118.075 Z M 54.533 100.558 C 54.533 105.678 50.38 109.831 45.258 109.831 L 21.331 109.831 C 19.793 109.831 18.549 111.078 18.549 112.613 L 18.549 123.187 C 18.549 128.309 14.396 132.46 9.273 132.46 C 4.151 132.46 0 128.309 0 123.187 L 0 100.558 C 0 95.435 4.151 91.282 9.273 91.282 L 45.258 91.282 C 50.38 91.282 54.533 95.435 54.533 100.558 Z" style="fill: rgb(33, 53, 71);"/>
</svg>