<?xml version="1.0" encoding="utf-8"?>
<svg version="1.1" id="Layer_1" xmlns="http://www.w3.org/2000/svg" x="0px" y="0px" viewBox="0 0 200 200" style="enable-background:new 0 0 295.5 53;">
  <style type="text/css">
  .st0{fill-rule:evenodd;clip-rule:evenodd;}
 </style>
  <desc>
  Created with Sketch.
 </desc>
  <path id="Path" class="st0" d="M 20.183 85.512 C 20.183 83.616 21.74 82.059 23.635 82.059 C 25.531 82.059 27.088 83.616 27.088 85.58 C 27.088 87.475 25.531 89.032 23.635 89.032 C 21.74 89.032 20.183 87.475 20.183 85.512 Z M 23.703 108.937 L 29.864 102.844 C 30.067 103.25 30.609 103.995 30.947 104.604 L 23.703 111.848 L 16.459 104.604 C 16.798 103.995 17.339 103.182 17.542 102.844 L 23.703 108.937 Z M 23.635 94.11 L 28.645 101.151 L 23.635 106.161 L 18.693 101.151 L 23.635 94.11 Z M 31.895 106.432 C 32.166 107.312 32.369 108.26 32.369 109.275 C 32.369 114.082 28.442 117.941 23.635 117.941 C 18.829 117.941 14.97 114.082 14.97 109.275 C 14.97 108.26 15.105 107.312 15.443 106.432 L 23.635 114.624 L 31.895 106.432 Z M 47.331 92.147 C 46.654 92.147 45.503 92.147 44.352 92.147 C 44.352 90.793 43.878 89.439 43.066 88.355 C 41.441 86.324 38.801 85.376 36.634 86.392 C 33.994 87.611 31.489 90.319 29.187 92.147 L 44.352 92.147 C 44.352 94.381 43.811 96.006 42.66 97.631 C 41.509 99.255 38.868 101.083 35.89 101.151 C 32.978 101.219 31.15 100.271 29.052 97.901 C 26.885 95.599 24.922 92.147 24.922 92.147 C 30.406 88.152 35.89 79.825 43.201 84.564 C 45.706 86.324 47.399 88.965 47.331 92.147 Z M 11.449 101.151 C 8.47 101.083 5.83 99.255 4.679 97.631 C 3.528 96.006 2.986 94.381 2.986 92.147 L 18.152 92.147 C 15.85 90.319 13.345 87.611 10.704 86.392 C 8.538 85.376 5.897 86.324 4.273 88.355 C 3.46 89.439 2.986 90.86 2.986 92.147 C 1.768 92.147 0.684 92.147 0.007 92.147 C -0.128 89.032 1.565 86.392 4.07 84.564 C 11.381 79.825 16.865 88.085 22.349 92.147 C 22.349 92.147 20.318 95.532 18.219 97.901 C 16.121 100.271 14.428 101.219 11.449 101.151 Z M 200 86.189 C 200 87.678 198.781 88.897 197.292 88.897 C 195.802 88.897 194.584 87.678 194.584 86.189 C 194.584 84.699 195.802 83.481 197.292 83.481 C 198.849 83.481 200 84.699 200 86.189 Z M 199.661 86.189 C 199.661 84.902 198.578 83.819 197.292 83.819 C 196.005 83.819 194.922 84.902 194.922 86.189 C 194.922 87.475 196.005 88.558 197.292 88.558 C 198.646 88.558 199.661 87.475 199.661 86.189 Z M 197.698 86.324 L 198.51 87.678 L 197.969 87.678 L 197.156 86.392 L 196.818 86.392 L 196.818 87.678 L 196.344 87.678 L 196.344 84.699 L 197.292 84.699 C 197.63 84.699 197.901 84.767 198.104 84.902 C 198.307 85.038 198.443 85.241 198.443 85.512 C 198.443 86.053 198.036 86.324 197.698 86.324 Z M 197.766 85.986 C 197.901 85.85 197.969 85.783 197.969 85.58 C 197.969 85.376 197.901 85.241 197.766 85.173 C 197.563 85.038 197.427 85.038 197.156 85.038 L 196.818 85.038 L 196.818 86.053 L 197.156 86.053 C 197.427 86.053 197.63 86.053 197.766 85.986 Z M 158.363 98.037 L 158.363 113.811 C 158.363 115.369 157.077 116.452 155.519 116.452 L 153.962 116.452 C 152.405 116.452 151.119 115.369 151.119 113.811 L 151.119 99.932 C 151.119 98.985 150.306 98.781 149.765 98.781 L 149.426 98.781 C 148.885 98.781 148.072 98.985 148.072 99.932 L 148.072 113.811 C 148.072 115.369 146.786 116.452 145.229 116.452 L 143.604 116.452 C 142.047 116.384 140.828 115.369 140.828 113.811 L 140.828 99.932 C 140.828 98.985 140.016 98.781 139.474 98.781 L 139.136 98.781 C 138.594 98.781 137.781 98.985 137.781 99.932 L 137.781 113.811 C 137.781 115.369 136.495 116.452 134.938 116.452 L 133.381 116.452 C 131.824 116.452 130.537 115.369 130.537 113.811 L 130.537 98.037 C 130.537 94.787 131.959 92.147 136.901 92.147 L 152.27 92.147 C 156.874 92.147 158.363 94.719 158.363 98.037 Z M 177.523 107.447 L 167.57 107.447 C 167.57 107.447 167.57 108.801 167.57 108.937 C 167.57 109.411 167.774 110.088 168.586 110.088 C 168.992 110.088 180.705 110.088 180.705 110.088 C 182.262 110.088 183.345 111.171 183.345 112.593 L 183.345 113.947 C 183.345 115.301 182.262 116.452 180.705 116.452 L 166.216 116.452 C 163.508 116.452 160.326 115.233 160.326 110.9 L 160.326 97.698 C 160.326 93.433 163.441 92.147 166.216 92.147 L 177.455 92.147 C 180.163 92.147 183.345 93.365 183.345 97.698 L 183.345 101.828 C 183.413 106.161 180.163 107.447 177.523 107.447 Z M 176.575 99.932 L 176.575 99.662 C 176.575 99.188 176.372 98.443 175.356 98.443 L 168.857 98.443 C 167.841 98.443 167.638 99.12 167.638 99.662 L 167.638 101.151 L 175.356 101.151 C 176.372 101.083 176.575 100.406 176.575 99.932 Z M 192.62 86.121 L 192.62 113.744 C 192.62 115.301 191.334 116.384 189.777 116.384 L 188.22 116.384 C 186.662 116.384 185.376 115.301 185.376 113.744 L 185.376 86.121 C 185.376 84.564 186.662 83.481 188.22 83.481 L 189.777 83.481 C 191.334 83.481 192.62 84.564 192.62 86.121 Z M 98.853 94.787 L 98.853 110.562 C 98.853 113.27 97.431 116.452 92.489 116.452 L 82.604 116.452 C 77.662 116.452 76.24 113.27 76.24 110.562 L 76.24 94.787 C 76.24 93.23 77.526 92.147 79.084 92.147 L 80.641 92.147 C 82.198 92.147 83.484 93.23 83.484 94.787 L 83.484 108.531 C 83.484 109.546 84.297 109.749 84.838 109.749 L 90.322 109.749 C 90.864 109.749 91.676 109.546 91.676 108.531 L 91.676 94.787 C 91.676 93.23 92.963 92.147 94.52 92.147 L 96.077 92.147 C 97.634 92.147 98.92 93.23 98.853 94.787 Z M 128.777 98.037 L 128.777 113.811 C 128.777 115.369 127.491 116.452 125.934 116.452 L 124.376 116.452 C 122.819 116.452 121.533 115.369 121.533 113.811 L 121.533 99.932 C 121.533 98.985 120.721 98.781 120.179 98.781 L 119.84 98.781 C 119.299 98.781 118.486 98.985 118.486 99.932 L 118.486 113.811 C 118.486 115.369 117.2 116.452 115.643 116.452 L 114.018 116.452 C 112.461 116.452 111.242 115.369 111.242 113.811 L 111.242 99.932 C 111.242 98.985 110.43 98.781 109.888 98.781 L 109.55 98.781 C 109.008 98.781 108.196 98.985 108.196 99.932 L 108.196 113.811 C 108.196 115.369 106.909 116.452 105.352 116.452 L 103.795 116.452 C 102.238 116.452 100.951 115.369 100.951 113.811 L 100.951 98.037 C 100.951 94.787 102.373 92.147 107.315 92.147 L 122.684 92.147 C 127.152 92.147 128.642 94.719 128.777 98.037 Z M 74.344 98.037 L 74.344 113.676 C 74.344 115.233 73.058 116.316 71.501 116.316 L 69.944 116.316 C 68.387 116.316 67.1 115.233 67.1 113.676 L 67.1 100.068 C 67.1 99.052 66.288 98.849 65.746 98.849 L 58.502 98.849 L 58.502 113.744 C 58.502 115.301 57.216 116.384 55.659 116.384 L 54.101 116.384 C 52.544 116.384 51.258 115.301 51.258 113.744 L 51.258 86.121 C 51.258 84.564 52.544 83.481 54.101 83.481 L 55.659 83.481 C 57.216 83.481 58.502 84.564 58.502 86.121 L 58.502 92.147 L 67.98 92.147 C 72.923 92.147 74.344 95.329 74.344 98.037 Z" style="fill: rgb(33, 53, 71);"/>
</svg>