<?xml version="1.0" encoding="utf-8"?>
<svg xmlns="http://www.w3.org/2000/svg" viewBox="0 0 200 200">
  <defs>
    <style>
      .blue {fill:#0700cf;}
    </style>
  </defs>
  <path d="M 37.149 74.464 L 37.149 81.894 C 32.471 81.894 30.214 83.71 30.214 86.627 L 30.214 109.852 C 30.214 116.622 28.563 125.592 14.97 125.592 C 1.596 125.592 0.055 115.191 0 111.613 L 0 111.337 C 0.11 107.925 2.918 105.173 6.329 105.173 C 9.796 105.173 12.658 107.98 12.658 111.502 C 12.658 113.814 11.392 115.85 9.576 116.95 C 10.072 118.106 11.062 119.097 12.878 119.097 C 15.851 119.097 16.566 116.565 16.566 114.749 L 16.566 87.397 C 16.566 82.334 13.87 81.894 9.027 81.894 L 9.027 74.464 L 37.149 74.464 Z M 106.605 90.753 C 106.605 86.626 104.348 83.158 100.441 83.158 C 96.643 83.158 94.772 86.517 94.772 90.534 L 94.772 105.394 C 94.772 108.971 96.863 110.347 99.725 110.347 L 99.725 117.557 L 75.179 117.557 L 75.179 110.127 C 79.857 110.127 82.114 108.311 82.114 105.394 L 82.114 87.342 C 82.114 83.16 80.023 81.894 75.179 81.894 L 75.179 74.464 L 94.662 74.464 L 94.662 80.134 C 94.662 80.134 97.249 74.686 106.935 74.686 C 117.391 74.686 120.089 81.123 120.089 81.123 C 120.089 81.123 123.226 74.684 132.912 74.684 C 143.314 74.684 146.011 81.123 146.011 81.123 C 147.276 83.71 147.001 85.251 147.001 87.782 L 147.001 104.458 C 147.001 106.77 147.553 110.347 153.33 110.347 L 153.33 117.557 L 128.95 117.557 L 128.95 110.292 C 132.692 110.292 134.618 108.916 134.618 105.944 L 134.618 90.7 C 134.618 88.003 132.967 83.325 127.684 83.325 C 122.786 83.325 120.364 88.443 120.364 91.195 C 120.364 94.993 120.419 104.458 120.419 104.458 C 120.419 106.77 120.529 110.347 125.318 110.347 L 125.318 117.611 L 102.422 117.611 L 102.422 110.347 C 106.164 110.347 106.605 108.971 106.605 105.999 L 106.605 90.753 Z M 77.877 96.26 C 77.877 108.311 68.082 118.108 56.028 118.108 C 43.974 118.108 34.177 108.314 34.177 96.26 C 34.177 84.205 43.974 74.409 56.026 74.409 C 68.08 74.409 77.821 84.205 77.877 96.26 Z M 56.632 110.679 C 62.575 110.679 65.657 104.24 65.657 96.26 C 65.657 88.279 62.52 81.84 56.632 81.84 C 50.523 81.84 47.606 88.279 47.606 96.26 C 47.606 104.183 50.634 110.677 56.632 110.677 L 56.632 110.679 Z M 200 101.376 L 200 108.916 C 200 112.768 196.973 117.887 189.378 117.887 C 181.783 117.887 178.922 112.768 178.922 112.768 C 178.922 112.768 175.675 117.887 166.869 117.887 C 158.119 117.887 153.165 112.383 154.431 103.743 C 155.753 94.442 170.555 93.616 173.527 92.956 C 176.499 92.296 179.581 91.415 178.591 86.242 C 177.27 79.472 166.703 81.894 166.703 81.894 C 167.902 83.089 168.576 84.713 168.574 86.407 C 168.574 89.984 165.657 92.846 162.135 92.846 C 158.558 92.846 155.696 89.929 155.696 86.407 C 155.696 79.637 161.42 74.739 171.986 74.739 C 193.23 74.739 191.084 86.352 191.084 92.24 L 191.084 107.21 C 191.084 108.641 191.303 110.347 192.955 110.347 C 194.606 110.347 195.156 108.971 195.156 107.1 L 195.156 101.376 L 200 101.376 Z M 178.26 97.579 C 178.26 97.579 170.72 98.459 167.859 102.147 C 164.997 105.779 167.639 109.962 171.876 109.962 C 176.114 109.962 178.26 106.439 178.26 102.807 L 178.26 97.579 Z" style="fill: rgb(33, 53, 71);"/>
</svg>