<?xml version="1.0" encoding="utf-8"?>
<svg xmlns="http://www.w3.org/2000/svg" viewBox="0 0 200 200">
  <title>Kelme logo</title>
  <path d="M 35.75 184.665 L 45.856 199.833 L 37.901 199.87 L 30.725 189.116 L 26.22 193.121 L 26.275 199.963 L 19.433 200 L 19.266 176.006 L 26.108 175.95 L 26.164 185.537 L 26.498 185.537 L 36.863 175.876 L 45.689 175.821 L 35.75 184.665 Z M 76.859 175.598 L 76.896 180.994 L 60.876 181.087 L 60.913 184.888 L 71.297 184.795 L 71.352 189.82 L 60.931 189.913 L 60.968 194.141 L 76.989 194.048 L 77.026 199.611 L 54.163 199.759 L 53.996 175.765 L 76.859 175.598 Z M 110.848 193.807 L 110.885 199.388 L 86.965 199.536 L 86.798 175.542 L 93.64 175.487 L 93.77 193.918 L 110.848 193.807 Z M 180.568 174.875 L 180.605 180.271 L 164.584 180.382 L 164.603 184.165 L 175.005 184.109 L 175.042 189.116 L 164.64 189.19 L 164.677 193.436 L 180.679 193.325 L 180.735 198.887 L 157.872 199.054 L 157.705 175.042 L 180.568 174.875 Z M 133.173 199.777 L 125.089 185.759 L 125.181 199.277 L 118.636 199.314 L 118.487 175.32 L 125.014 175.264 L 133.099 188.225 L 140.961 175.153 L 147.525 175.116 L 147.692 199.129 L 141.128 199.166 L 141.054 185.667 L 133.173 199.777 Z M 145.467 117.727 C 145.61 134.445 128.109 145.47 113.091 138.123 C 105.248 134.278 96.055 134.339 88.263 138.29 C 85.157 139.881 81.721 140.719 78.231 140.738 C 65.852 140.81 55.741 130.866 55.61 118.487 L 55.61 118.19 C 55.606 115.322 56.068 112.472 56.982 109.753 C 57.864 107.011 59.033 104.37 60.468 101.873 C 61.792 99.572 63.245 97.348 64.825 95.216 C 67.395 91.708 70.182 88.365 73.169 85.203 C 76.878 81.179 80.679 77.322 84.721 73.632 C 86.73 71.901 88.882 70.343 91.156 68.978 C 96.796 65.969 103.557 65.928 109.235 68.867 C 111.53 70.191 113.702 71.717 115.725 73.429 C 119.817 77.039 123.722 80.846 127.443 84.851 C 130.47 87.96 133.299 91.255 135.917 94.715 C 137.518 96.831 138.997 99.034 140.349 101.317 C 141.858 103.786 143.103 106.408 144.058 109.141 C 145.001 111.856 145.496 114.704 145.522 117.578 L 145.467 117.727 Z M 156.741 46.746 C 158.404 46.366 160.099 46.143 161.803 46.078 C 163.429 46.023 165.055 46.215 166.624 46.653 C 167.67 46.953 168.626 47.506 169.405 48.266 C 170.173 49.038 170.74 49.987 171.055 51.029 C 171.521 52.587 171.74 54.207 171.704 55.832 C 171.667 57.534 171.476 59.227 171.13 60.894 C 170.112 65.481 168.224 69.831 165.567 73.707 C 164.269 75.717 162.654 77.5 160.783 78.991 C 158.17 81.079 155.007 82.368 151.679 82.7 C 149.159 82.974 146.609 82.616 144.262 81.661 C 142.454 80.962 140.826 79.865 139.496 78.454 C 138.063 77.139 136.935 75.524 136.195 73.725 C 135.203 71.387 134.814 68.836 135.064 66.308 C 135.381 62.954 136.67 59.763 138.773 57.13 C 140.238 55.235 142.005 53.594 144.002 52.271 C 147.855 49.624 152.179 47.734 156.741 46.709 L 156.741 46.746 Z M 178.992 42.37 C 178.621 43.037 178.102 43.608 177.471 44.039 C 176.954 44.382 176.342 44.548 175.723 44.515 C 173.499 44.4 172.235 41.919 173.447 40.052 C 173.87 39.418 174.436 38.891 175.098 38.513 C 176.887 37.382 178.91 36.672 181.013 36.436 C 180.794 38.539 180.11 40.566 179.01 42.37 L 178.992 42.37 Z M 115.409 20.972 C 116.655 19.822 118.002 18.785 119.433 17.875 C 120.826 17.033 122.339 16.406 123.92 16.021 C 124.972 15.748 126.077 15.748 127.128 16.021 C 128.183 16.297 129.151 16.831 129.947 17.578 C 131.137 18.693 132.144 19.989 132.932 21.417 C 133.739 22.911 134.41 24.474 134.935 26.089 C 136.386 30.547 136.952 35.246 136.603 39.922 C 136.492 42.307 135.984 44.658 135.101 46.876 C 133.905 50.015 131.818 52.735 129.094 54.701 C 127.052 56.191 124.679 57.159 122.177 57.519 C 118.296 57.962 114.389 56.944 111.219 54.663 C 109.201 53.141 107.595 51.14 106.546 48.841 C 105.133 45.798 104.636 42.409 105.118 39.088 C 105.43 36.714 106.132 34.409 107.195 32.264 C 109.181 28.016 111.97 24.194 115.409 21.009 L 115.409 20.972 Z M 132.524 6.101 C 132.535 6.872 132.365 7.634 132.023 8.326 C 131.747 8.891 131.295 9.349 130.733 9.631 C 128.756 10.625 126.444 9.106 126.572 6.898 C 126.626 6.136 126.846 5.394 127.221 4.728 C 128.211 2.867 129.604 1.252 131.3 0 C 132.164 1.923 132.589 4.013 132.543 6.119 L 132.524 6.101 Z M 64.899 26.571 C 65.409 24.947 66.06 23.371 66.846 21.862 C 67.618 20.432 68.599 19.127 69.758 17.986 C 71.358 16.451 73.625 15.83 75.784 16.336 C 77.373 16.718 78.892 17.343 80.29 18.19 C 81.738 19.071 83.104 20.083 84.369 21.213 C 87.837 24.358 90.675 28.133 92.732 32.338 C 93.828 34.465 94.56 36.757 94.901 39.125 C 95.428 42.438 94.977 45.835 93.603 48.897 C 92.582 51.213 91.002 53.238 89.005 54.793 C 85.858 57.104 81.97 58.174 78.083 57.797 C 75.576 57.473 73.19 56.536 71.13 55.071 C 68.384 53.143 66.257 50.456 65.011 47.339 C 64.098 45.131 63.561 42.789 63.416 40.404 C 63.021 35.735 63.524 31.033 64.899 26.553 L 64.899 26.571 Z M 72.873 7.269 C 72.906 7.871 72.75 8.47 72.428 8.98 C 71.234 10.86 68.452 10.744 67.421 8.771 C 67.089 8.083 66.911 7.328 66.902 6.564 C 66.833 4.45 67.232 2.349 68.07 0.408 C 69.778 1.643 71.185 3.245 72.187 5.099 C 72.585 5.757 72.821 6.501 72.873 7.269 Z M 29.242 61.895 C 28.866 60.232 28.643 58.537 28.575 56.833 C 28.534 55.207 28.728 53.582 29.149 52.012 C 29.77 49.892 31.413 48.227 33.525 47.58 C 35.09 47.122 36.717 46.909 38.346 46.95 C 40.049 46.987 41.742 47.178 43.409 47.525 C 47.987 48.522 52.335 50.378 56.221 52.995 C 58.233 54.296 60.019 55.919 61.506 57.797 C 63.601 60.406 64.89 63.571 65.215 66.902 C 65.498 69.42 65.148 71.969 64.195 74.319 C 62.641 77.905 59.804 80.781 56.24 82.385 C 53.898 83.364 51.35 83.753 48.823 83.516 C 45.474 83.199 42.29 81.91 39.663 79.807 C 37.757 78.357 36.108 76.596 34.786 74.597 C 32.138 70.749 30.251 66.432 29.223 61.877 L 29.242 61.895 Z M 24.922 39.588 C 25.587 39.959 26.158 40.48 26.59 41.109 C 26.917 41.611 27.08 42.201 27.056 42.8 C 26.969 45.025 24.506 46.321 22.622 45.133 C 21.979 44.714 21.445 44.148 21.065 43.482 C 19.937 41.698 19.227 39.683 18.988 37.586 C 21.085 37.797 23.108 38.481 24.903 39.588 L 24.922 39.588 Z" style="fill: rgb(33, 53, 71);"/>
</svg>