<?xml version="1.0" encoding="utf-8"?>
<svg xmlns="http://www.w3.org/2000/svg" version="1.0" viewBox="0 0 200 200" id="svg2251">
  <path id="path2295" d="M 65.866 76.866 C 74.411 75.346 83.412 77.732 90.514 82.603 C 101.462 90.221 107.89 103.549 107.605 116.822 C 107.775 124.923 106.371 132.958 104.413 140.79 C 102.279 148.94 99.504 156.959 95.642 164.462 C 95.434 165.021 94.94 165.34 94.463 165.641 C 97.54 156.262 100.321 146.544 99.943 136.572 C 99.696 130.352 98.401 123.776 94.315 118.878 C 91.052 114.875 85.161 112.988 80.318 115.094 C 74.203 117.765 71.631 125.405 73.325 131.581 C 73.83 133.747 75.058 135.629 76.155 137.532 C 68.57 133.918 64.21 125.498 63.678 117.354 C 63.283 113.525 64.127 109.757 64.446 105.967 C 61.27 112.648 59.416 120.453 61.862 127.67 C 64.177 135.448 70.643 140.954 77.274 145.123 C 68.109 143.165 59.416 137.779 54.337 129.787 C 50.92 124.478 49.653 118.1 49.648 111.863 C 49.966 107.893 50.427 103.922 51.43 100.06 C 48.364 103.911 47.125 108.88 46.434 113.668 C 45.375 121.873 48.024 130.435 53.416 136.693 C 58.423 142.66 65.268 146.73 72.333 149.818 C 74.17 150.673 76.216 151.085 77.905 152.242 C 66.595 150.948 55.182 146.861 46.911 138.799 C 40.477 132.634 36.616 124.061 35.601 115.264 C 34.592 107.273 36.413 98.87 41.059 92.245 C 46.691 83.924 56.043 78.511 65.866 76.866 Z M 104.517 45.581 C 102.471 42.18 103.266 37.803 105.153 34.507 C 105.076 38.396 107.533 42.07 111.274 43.25 C 110.906 45.307 110.764 47.391 110.391 49.442 C 108.142 48.718 105.767 47.72 104.517 45.581 Z M 92.67 45.263 C 93.789 38.851 98.857 33.778 104.67 31.266 C 102.471 33.169 100.409 35.407 99.559 38.259 C 98.429 41.939 98.73 46.332 101.275 49.371 C 103.31 51.812 106.425 52.958 109.393 53.819 C 117.883 56.029 126.955 55.875 135.121 59.353 C 141.489 61.942 146.102 68.019 147.495 74.677 C 148.608 81.171 147.193 87.78 144.873 93.852 C 141.412 102.896 136.46 111.26 131.447 119.515 C 119.117 139.353 105.828 158.604 94.348 178.958 C 94.052 179.479 93.624 179.863 93.07 180.115 C 98.215 168.718 103.436 157.31 107.407 145.43 C 111.735 132.903 114.329 119.657 113.874 106.368 C 113.292 98.92 112.371 91.356 109.475 84.407 C 106.491 76.948 101.572 70.531 97.403 63.73 C 94.008 58.272 91.414 51.784 92.67 45.263 Z M 86.011 28.304 C 91.513 27.147 96.58 24.124 100.272 19.885 C 101.709 22.26 103.206 24.602 104.506 27.054 C 103.628 28.233 102.092 28.83 100.859 29.615 C 94.902 33.032 87.755 34.584 80.987 33.037 C 77.274 31.99 73.791 30.086 71 27.415 C 75.892 28.611 81.02 29.417 86.011 28.304 Z" style="fill: rgb(33, 53, 71);"/>
  <path d="M 132.878 127.731 C 160.757 135.547 185.345 154.579 200 179.539 C 177.623 179.6 155.245 179.594 132.873 179.539 C 132.873 162.268 132.873 144.997 132.873 127.725 L 132.878 127.731 Z" style="fill: rgb(121, 249, 138);" id="path2299"/>
  <path d="M 0 179.55 C 9.796 163.244 23.557 149.319 39.902 139.55 C 46.949 147.733 56.761 153.174 67.16 155.818 C 67.254 163.727 67.16 171.647 67.215 179.561 C 44.816 179.561 22.411 179.561 0.011 179.561 L 0 179.55 Z" style="fill: rgb(33, 53, 71);" id="path2301"/>
</svg>