<?xml version="1.0" encoding="utf-8"?>
<svg xmlns="http://www.w3.org/2000/svg" viewBox="0 0 200 200">
  <path id="path-2" d="M 105.397 85.568 C 99.776 89.816 94.811 97.555 94.251 103.462 C 90.007 97.489 84.608 92.428 78.373 88.579 C 79.625 88.624 80.821 88.648 82.005 88.648 C 89.896 88.535 97.745 87.501 105.397 85.568 Z M 193.913 44.445 C 180.515 51.269 166.567 56.954 152.217 61.443 C 120.624 71.248 101.724 77.066 77.382 77.552 C 77.033 77.56 76.692 77.563 76.359 77.563 C 59.857 77.563 59.957 69.23 76.672 54.508 C 51.74 64.194 26.124 72.017 0.034 77.915 C 27.444 78.697 48.258 84.337 60.761 91.699 C 78.566 102.176 82.893 113.171 84.899 120.443 L 111.359 120.443 C 108.991 112.748 105.494 95.507 120.53 84.814 C 131.274 77.183 163.88 68.163 181.349 61.681 L 193.913 44.445 Z M 177.938 134.65 C 179.372 134.655 180.529 135.83 180.512 137.264 L 180.512 147.722 C 180.525 149.158 179.372 150.333 177.936 150.347 L 174.043 150.347 C 172.606 150.333 171.449 149.16 171.455 147.722 L 171.455 137.264 C 171.447 135.826 172.606 134.657 174.043 134.65 L 177.938 134.65 Z M 196.428 150.192 C 196.795 150.212 197.094 150.497 197.13 150.865 C 197.118 151.243 196.806 151.543 196.428 151.543 L 195.489 151.543 L 195.489 150.192 L 196.428 150.192 Z M 196.617 149.505 L 194.69 149.505 L 194.69 154.018 L 195.489 154.018 L 195.489 152.2 L 196.404 152.2 C 196.764 152.267 197.038 152.565 197.075 152.929 C 197.1 153.225 197.055 153.996 197.197 153.996 L 198.017 153.996 C 197.871 153.947 197.804 153.237 197.754 152.718 C 197.737 152.31 197.479 151.952 197.099 151.805 C 197.565 151.678 197.904 151.274 197.948 150.793 C 197.935 150.068 197.341 149.491 196.617 149.499 L 196.617 149.505 Z M 196.284 148.389 C 198.886 148.357 200.547 151.155 199.273 153.425 C 197.998 155.694 194.745 155.735 193.417 153.495 C 193.107 152.974 192.943 152.379 192.943 151.772 C 192.942 149.92 194.432 148.411 196.284 148.389 Z M 196.284 148.012 C 193.395 147.984 191.557 151.093 192.978 153.609 C 194.396 156.126 198.009 156.162 199.478 153.675 C 199.82 153.096 200 152.436 200 151.765 C 200 149.707 198.342 148.032 196.284 148.012 Z M 71.97 129.433 L 71.97 155.552 L 76.7 155.552 C 79.564 155.536 81.866 153.192 81.831 150.328 L 81.831 129.433 L 71.97 129.433 Z M 84.883 129.433 L 84.883 134.65 L 97.961 134.65 L 86.502 147.475 C 85.701 148.393 85.25 149.565 85.233 150.783 L 85.233 155.552 L 108.892 155.552 L 108.892 150.348 L 95.911 150.348 L 107.352 137.523 C 108.137 136.568 108.564 135.367 108.559 134.129 L 108.559 129.437 L 84.883 129.433 Z M 166.807 129.433 C 163.927 129.445 161.6 131.783 161.598 134.663 L 161.598 150.325 C 161.603 153.203 163.929 155.538 166.807 155.552 L 185.228 155.552 C 188.092 155.53 190.394 153.189 190.366 150.325 L 190.366 134.661 C 190.397 131.796 188.093 129.451 185.228 129.431 L 166.807 129.433 Z M 34.334 120.446 C 30.769 120.447 27.396 122.055 25.151 124.825 L 0 155.555 L 14.262 155.555 L 33.344 132.262 C 34.814 130.474 37.006 129.436 39.323 129.431 L 44.512 129.431 L 23.123 155.55 L 37.399 155.55 L 56.48 132.257 C 57.952 130.465 60.148 129.426 62.466 129.426 L 67.503 129.426 L 46.2 155.546 L 61.512 155.546 C 65.098 155.522 67.984 152.59 67.949 149.003 L 67.949 120.446 L 57.47 120.446 C 53.906 120.447 50.532 122.055 48.288 124.825 L 44.52 129.423 L 44.52 120.446 L 34.334 120.446 Z M 111.972 129.433 L 111.972 150.325 C 111.969 153.201 114.29 155.538 117.166 155.555 L 134.883 155.555 C 137.747 155.536 140.048 153.189 140.01 150.325 L 140.01 134.65 L 145.767 134.65 C 147.202 134.65 148.362 135.819 148.353 137.253 L 148.353 155.552 L 158.206 155.552 L 158.206 134.66 C 158.233 131.794 155.927 129.451 153.062 129.433 L 130.151 129.433 L 130.151 147.732 C 130.177 149.163 129.032 150.339 127.601 150.353 L 124.439 150.353 C 122.995 150.334 121.836 149.158 121.838 147.715 L 121.838 129.433 L 111.972 129.433 Z" style="fill: rgb(33, 53, 71);"/>
</svg>