<?xml version="1.0" encoding="utf-8"?>
<svg version="1.1" id="Layer_1" xmlns="http://www.w3.org/2000/svg" x="0px" y="0px" viewBox="0 0 200 200" style="enable-background:new 0 0 436.3 209.8;">
  <path d="M 101.405 85.88 L 110.666 69.743 L 142.114 67.726 L 143.214 65.755 L 114.15 63.738 L 120.98 51.956 L 174.892 51.956 C 191.487 51.956 203.727 57.915 198.96 75.29 C 197.539 80.608 190.8 93.902 170.995 99.449 C 175.213 99.954 185.665 104.584 183.831 116.595 C 180.622 137.912 153.071 148.043 137.713 148.043 L 74.037 148.089 L 70.874 135.757 L 104.248 133.419 L 105.394 131.448 L 69.177 129.248 L 65.281 114.624 L 116.763 111.598 L 117.909 109.673 L 25.443 103.896 L 29.89 96.195 L 129.461 89.731 L 130.607 87.805 L 101.405 85.88 M 143.077 89.089 L 152.245 89.043 C 158.388 88.997 164.761 86.201 167.099 80.562 C 169.253 75.29 166.365 70.797 162.514 70.843 L 153.621 70.843 L 143.077 89.089 Z M 132.487 107.38 L 121.439 126.589 L 131.983 126.589 C 136.888 126.589 145.644 124.159 148.349 117.191 C 150.87 110.681 146.24 107.38 143.031 107.38 C 143.031 107.38 132.487 107.38 132.487 107.38 Z M 52.17 137.041 L 45.752 147.997 L 0 148.089 L 4.447 140.387 L 52.17 137.041 Z M 55.379 51.91 L 92.191 51.956 L 94.987 62.362 L 51.024 59.612 C 51.024 59.612 55.379 51.91 55.379 51.91 Z M 97.05 70.614 L 101.084 85.88 L 38.233 81.754 L 42.634 74.098 L 97.05 70.614 Z M 65.052 114.624 L 57.075 128.468 L 12.744 125.947 L 17.191 118.245 L 65.052 114.624 Z" style="fill: rgb(33, 53, 71);"/>
</svg>