<?xml version="1.0" encoding="utf-8"?>
<svg version="1.1" id="Layer_1" xmlns="http://www.w3.org/2000/svg" x="0px" y="0px" viewBox="0 0 200 200" style="enable-background:new 0 0 244.6 76.1;">
  <style type="text/css">
  .st0{fill:#2736D1;}
 </style>
  <path class="st0" d="M 151.676 83.197 C 149.06 83.197 146.525 83.279 144.072 83.524 C 136.468 75.102 119.542 68.888 100 68.888 C 80.458 68.888 63.614 75.02 55.928 83.524 C 53.393 83.279 50.859 83.197 48.324 83.197 C 21.75 83.197 0 93.827 0 107.318 C 0 120.482 21.75 131.112 48.324 131.112 C 67.784 131.112 84.792 125.388 92.559 117.294 C 95.012 117.457 97.465 117.539 100 117.539 C 102.535 117.539 104.988 117.457 107.441 117.294 C 115.209 125.47 132.216 131.112 151.676 131.112 C 178.25 131.112 200 120.482 200 107.4 C 200 93.827 178.25 83.197 151.676 83.197 Z M 151.676 122.445 C 135.732 122.445 112.347 117.948 112.347 107.318 C 112.347 99.796 123.385 94.808 135.732 92.682 C 135.895 92.682 136.059 92.437 135.977 92.273 C 135.977 92.273 135.977 92.191 135.977 92.191 C 135.078 89.902 133.442 88.021 131.316 86.795 C 130.989 86.549 130.581 86.468 130.253 86.549 C 115.045 88.512 102.862 97.997 102.862 107.318 C 102.862 108.136 102.944 108.953 103.107 109.771 C 102.044 109.853 100.981 109.853 99.918 109.853 C 98.937 109.853 97.874 109.853 96.729 109.771 C 96.321 109.771 95.993 109.771 95.585 109.689 C 82.093 108.953 63.941 104.456 61.652 95.053 C 61.57 94.808 61.406 94.644 61.243 94.644 C 58.299 94.236 55.356 94.072 52.33 93.99 C 51.922 93.99 51.676 94.236 51.758 94.644 C 52.821 104.702 65.168 112.388 81.439 115.74 C 73.426 120.401 59.199 122.445 48.324 122.445 C 32.788 122.445 9.894 117.948 9.894 107.318 C 9.894 95.871 32.788 91.374 48.324 91.374 C 62.551 91.374 85.282 95.217 87.572 105.765 C 87.572 106.092 87.899 106.419 88.226 106.419 C 91.006 106.909 93.868 107.155 96.729 107.236 C 96.975 107.236 97.138 107.073 97.138 106.909 C 97.138 106.909 97.138 106.909 97.138 106.827 C 96.566 96.77 83.647 88.512 66.721 84.996 C 74.407 79.436 89.043 76.574 100.082 76.574 C 115.045 76.574 136.795 81.889 138.512 92.028 C 138.512 92.11 138.512 92.191 138.512 92.273 C 138.594 92.6 138.594 93.009 138.594 93.336 C 138.594 100.695 128.373 105.601 115.699 108.463 C 115.372 108.545 115.29 108.708 115.454 108.953 C 116.762 111.243 118.806 113.123 121.177 114.35 C 121.586 114.595 121.995 114.677 122.404 114.595 C 138.103 111.079 148.406 102.412 148.406 93.336 C 148.406 92.682 148.324 92.028 148.242 91.374 C 149.469 91.374 150.613 91.292 151.758 91.292 C 167.294 91.292 190.188 95.789 190.188 107.236 C 190.106 117.948 167.212 122.445 151.676 122.445 Z" style="fill: rgb(33, 53, 71);"/>
</svg>