<?xml version="1.0" encoding="utf-8"?>
<svg version="1.1" id="Layer_1" xmlns="http://www.w3.org/2000/svg" x="0px" y="0px" viewBox="0 0 200 200" style="enable-background:new 0 0 215.2 106.6;">
  <style type="text/css">
  .st0{enable-background:new    ;}
 </style>
  <desc>
  Created with Sketch.
 </desc>
  <path id="Shape" d="M 110.345 52.885 C 110.996 52.606 112.019 50.561 112.948 50.654 C 113.32 50.654 114.901 53.908 114.901 53.908 C 127.822 54.559 143.719 70.083 145.764 71.664 C 146.786 72.5 150.97 76.684 158.592 80.03 C 161.66 81.425 164.821 82.075 167.796 81.796 C 171.7 81.518 175.976 78.078 178.672 73.43 C 182.019 67.666 183.413 57.626 193.174 51.863 C 194.569 50.933 197.543 49.167 199.403 51.491 C 200.797 53.35 199.496 56.418 198.101 57.812 C 197.172 58.742 195.498 59.579 192.245 61.159 C 191.129 61.624 189.27 63.018 188.619 63.576 C 185.087 66.179 182.67 72.221 179.788 78.729 C 179.788 78.729 178.579 81.982 173.28 85.422 C 172.351 86.073 173.28 86.445 174.21 87.746 C 175.326 89.326 177.836 96.02 177.557 106.152 C 177.557 107.919 178.393 108.848 179.137 110.243 C 180.624 112.753 183.413 112.195 183.32 115.541 C 183.32 120.004 186.574 120.933 185.551 122.978 C 184.715 124.373 184.994 125.953 184.994 127.348 C 184.994 128.091 185.365 129.207 183.785 129.114 C 177.371 128.742 177.836 120.375 177.928 117.401 C 178.021 117.029 177.65 116.285 177.65 116.285 C 177.278 116.192 173.373 113.124 173.094 112.846 C 168.26 108.105 165.193 103.735 163.333 99.273 C 162.218 96.298 161.009 93.417 158.964 91.464 C 156.64 89.326 153.851 88.211 151.341 88.211 C 133.865 88.118 130.239 80.495 125.405 76.684 C 125.312 76.591 124.94 76.312 124.661 76.312 C 124.383 76.312 124.104 76.777 124.011 76.869 C 122.152 78.822 120.292 79.472 117.782 79.472 C 111.833 79.472 105.511 74.36 104.303 75.475 C 103.373 76.312 104.21 78.264 102.63 78.543 C 100.491 78.915 98.167 76.777 98.26 74.824 C 98.539 71.385 101.979 70.455 105.14 70.083 C 107.557 69.897 109.602 70.641 110.159 70.641 C 111.554 70.827 111.833 69.154 111.554 68.038 C 111.275 66.923 110.159 66.644 108.951 66.272 C 107.557 65.9 105.976 67.016 104.954 66.644 C 103.838 66.272 103.652 65.621 102.63 64.692 C 101.328 63.576 99.748 63.204 99.748 61.624 C 99.748 60.229 101.514 60.043 102.072 58.649 C 102.351 57.998 102.165 57.255 102.444 56.883 C 103.094 55.86 104.21 55.86 105.14 54.931 C 106.441 53.629 107.092 51.305 107.742 51.212 C 108.393 51.026 109.509 53.536 110.345 52.885 Z M 53.267 141.478 L 53.267 101.504 L 66.375 101.504 L 66.375 145.475 C 66.375 147.706 64.701 149.472 62.47 149.472 L 39.323 149.472 C 37.278 149.472 35.418 147.706 35.418 145.475 L 35.418 101.411 L 48.805 101.411 L 48.805 141.385 C 48.898 142.593 49.827 143.616 51.036 143.616 C 52.244 143.616 53.174 142.686 53.267 141.478 Z M 95.472 101.411 L 115.272 101.411 C 117.596 101.411 119.549 103.271 119.549 105.688 L 119.549 149.38 L 106.348 149.38 L 106.348 109.313 C 106.348 108.105 105.325 107.082 104.117 107.082 C 102.908 107.082 101.886 108.198 101.886 109.313 L 101.886 149.565 L 88.685 149.565 L 88.685 109.499 C 88.685 108.198 87.756 107.268 86.454 107.268 C 85.246 107.268 84.223 108.198 84.223 109.499 L 84.223 149.472 L 71.023 149.472 L 71.023 105.781 C 71.023 103.456 72.975 101.504 75.299 101.504 L 95.472 101.504 L 95.472 101.411 Z M 26.587 137.387 L 13.201 137.387 L 13.201 149.472 L 0 149.472 L 0 101.504 L 26.773 101.504 C 29.097 101.504 31.049 103.456 31.049 105.873 L 31.049 133.111 C 31.049 135.528 29.097 137.387 26.587 137.387 Z M 17.756 109.499 C 17.756 108.198 16.733 107.175 15.525 107.175 L 13.294 107.175 L 13.294 131.438 L 15.525 131.438 C 16.733 131.438 17.756 130.508 17.756 129.114 L 17.756 109.499 Z M 140.837 149.658 L 140.837 137.666 L 136.282 137.666 L 136.282 149.658 L 122.988 149.658 L 122.988 106.152 C 122.988 103.735 124.94 101.969 127.264 101.969 L 149.668 101.969 C 151.992 101.969 153.944 103.921 153.944 106.152 L 153.944 149.658 L 140.837 149.658 Z M 140.837 131.81 L 140.837 109.871 C 140.837 108.755 139.814 107.733 138.606 107.733 C 137.397 107.733 136.375 108.755 136.375 109.871 L 136.375 131.903 L 140.837 131.81 Z M 166.029 149.101 C 162.404 149.101 159.522 146.219 159.522 142.593 C 159.522 138.968 162.404 136.086 166.029 136.086 C 169.655 136.086 172.537 138.968 172.537 142.593 C 172.537 146.219 169.655 149.101 166.029 149.101 Z M 166.029 137.109 C 162.962 137.109 160.545 139.619 160.545 142.593 C 160.545 145.568 163.055 148.078 166.029 148.078 C 169.004 148.078 171.514 145.568 171.514 142.593 C 171.514 139.619 169.097 137.109 166.029 137.109 Z M 166.215 139.897 C 166.68 139.897 167.052 139.99 167.331 140.269 C 167.703 140.548 167.889 140.92 167.889 141.478 C 167.889 142.221 167.517 142.779 166.866 143.058 L 168.167 145.568 L 167.145 145.568 L 166.029 143.151 L 165.007 143.151 L 165.007 145.568 L 164.17 145.568 L 164.17 139.897 L 166.215 139.897 Z M 166.215 142.407 C 166.494 142.407 166.773 142.314 166.959 142.128 C 167.145 141.943 167.238 141.757 167.238 141.478 C 167.238 141.199 167.145 140.92 166.959 140.827 C 166.773 140.734 166.587 140.641 166.308 140.641 L 165.007 140.641 L 165.007 142.407 L 166.215 142.407 Z" style="fill: rgb(33, 53, 71);"/>
</svg>