<?xml version="1.0" encoding="utf-8"?>
<svg version="1.1" id="Layer_1" xmlns="http://www.w3.org/2000/svg" x="0px" y="0px" viewBox="0 0 200 200" style="enable-background:new 0 0 360 100.8;">
  <path d="M 102.667 82.611 C 134 76.5 179.444 73.333 200 72 C 162.167 81.222 147.889 86.5 124.944 95.667 L 102.667 82.611 Z M 86.556 102 C 91.889 103.889 97.111 105.833 102.333 107.833 C 95.444 112.722 89.556 117.111 83.611 126.111 L 53.611 126.111 C 56.778 121.778 67.389 110.444 86.556 102 Z M 79.611 99.667 C 56.5 108.667 44.222 121.611 41 126.111 L 7.889 126.111 C 17.889 113.278 32.778 102.944 59.5 93.389 C 62.167 94.056 73.222 97.5 79.611 99.667 Z M 166.667 128 C 109.444 103.722 73.833 86.556 0 73.222 L 73.278 73.222 C 82.889 77.889 161.778 124.333 166.667 128 Z" style="fill: rgb(33, 53, 71);"/>
</svg>