<?xml version="1.0" encoding="utf-8"?>
<svg version="1.1" id="Layer_1" xmlns="http://www.w3.org/2000/svg" x="0px" y="0px" viewBox="0 0 200 200" style="enable-background:new 0 0 175.6 99.9;">
  <style type="text/css">
  .st0{fill:#0C0D0D;}
 </style>
  <path class="st0" d="M 125.854 98.064 C 119.248 93.281 109.567 90.092 97.039 90.092 L 96.241 90.092 C 83.713 90.092 74.032 93.395 67.426 98.064 C 66.401 98.862 65.49 99.431 64.806 100.001 C 65.49 100.456 66.401 101.14 67.426 101.823 C 74.032 106.607 83.713 109.796 96.241 109.796 L 97.039 109.796 C 109.567 109.796 119.248 106.493 125.854 101.823 C 126.879 101.14 127.79 100.57 128.474 100.001 C 127.677 99.545 126.879 98.862 125.854 98.064 Z M 157.403 100.001 C 178.702 109.568 192.255 123.349 193.052 138.839 C 193.052 138.839 187.358 143.167 169.362 149.773 C 153.531 155.582 141.572 156.834 141.572 156.834 L 141.572 122.666 C 141.572 117.768 140.205 113.44 136.56 108.429 C 123.121 113.326 110.364 116.288 96.469 116.288 C 82.574 116.288 69.818 113.326 56.378 108.429 C 52.733 113.44 51.367 117.882 51.367 122.666 L 51.481 156.834 C 51.481 156.834 39.522 155.582 23.69 149.773 C 5.695 143.167 0 138.839 0 138.839 C 0.683 123.349 14.351 109.568 35.649 100.115 C 14.351 90.547 0.797 76.766 0 61.276 C 0 61.276 5.695 56.948 23.576 50.229 C 39.408 44.42 51.481 43.167 51.481 43.167 L 51.481 77.336 C 51.481 82.119 52.847 86.561 56.492 91.572 C 69.932 86.561 82.688 83.6 96.583 83.6 C 110.478 83.6 123.235 86.675 136.674 91.572 C 140.433 86.561 141.686 82.119 141.686 77.336 L 141.686 43.167 C 141.686 43.167 153.645 44.42 169.476 50.342 C 187.472 56.948 193.166 61.276 193.166 61.276 C 192.369 76.766 178.815 90.547 157.403 100.001 Z M 198.861 133.258 C 198.519 132.916 198.064 132.689 197.494 132.689 C 196.697 132.689 196.014 133.144 195.672 133.941 C 195.33 134.625 195.558 135.536 196.128 136.105 C 196.697 136.675 197.494 136.903 198.292 136.561 C 199.089 136.333 199.544 135.536 199.544 134.739 C 199.544 134.169 199.317 133.714 198.861 133.258 Z M 197.608 137.131 C 196.583 137.131 195.672 136.561 195.33 135.65 C 194.989 134.739 195.216 133.714 195.9 133.03 C 196.583 132.233 197.608 132.119 198.519 132.461 C 199.431 132.916 200 133.714 200 134.739 C 200 136.105 198.861 137.131 197.608 137.131 Z M 197.38 134.739 L 197.153 134.739 L 197.153 135.764 L 196.811 135.764 L 196.811 133.486 L 197.608 133.486 C 198.178 133.486 198.405 133.828 198.405 134.169 C 198.405 134.283 198.405 134.511 198.292 134.625 C 198.178 134.739 197.95 134.853 197.836 134.853 L 198.519 135.878 L 198.064 135.878 L 197.38 134.739 Z M 197.039 134.511 L 197.38 134.511 C 197.722 134.511 197.836 134.397 197.836 134.169 C 197.836 133.941 197.722 133.828 197.38 133.828 L 197.039 133.828 C 197.039 133.828 197.039 134.625 197.039 134.511 Z" style="fill: rgb(33, 53, 71);"/>
</svg>